<svg id="Layer_5" enable-background="new 0 0 64 64" height="512" viewBox="0 0 64 64" width="512" xmlns="http://www.w3.org/2000/svg"><g><path d="m32 19c3.309 0 6-2.691 6-6s-2.691-6-6-6-6 2.691-6 6 2.691 6 6 6zm0-10c2.206 0 4 1.794 4 4s-1.794 4-4 4-4-1.794-4-4 1.794-4 4-4z"/><path d="m54 28.256-8.921 12.744h5.255c-2.226 8.183-9.748 14-18.334 14-6.033 0-11.573-2.77-15.202-7.6l-.433-.576-7.826 2.61.69 1.081c4.995 7.818 13.507 12.485 22.771 12.485 12.912 0 24.169-9.398 26.537-22h4.384zm2.836 10.744-.131.848c-1.862 12.058-12.483 21.152-24.705 21.152-8.147 0-15.666-3.897-20.362-10.49l4.006-1.336c4.01 4.983 9.93 7.826 16.356 7.826 9.947 0 18.602-7.065 20.579-16.801l.243-1.199h-3.901l5.079-7.256 5.08 7.256z"/><path d="m18.92 25h-5.253c1.037-3.784 3.277-7.198 6.333-9.701v.465l2.625.718c.086.229.181.457.286.684l-1.35 2.367 1.468 1.467h-2.029v28h22v-28h-2.029l1.468-1.468-1.35-2.367c.104-.227.2-.455.286-.684l2.625-.717v-.481c1.195.974 2.271 2.079 3.201 3.318l.433.576 7.827-2.611-.69-1.081c-3.379-5.29-8.516-9.24-14.479-11.164l-1.76-1.76-2.365 1.351c-.226-.104-.455-.2-.685-.286l-.719-2.626h-5.526l-.718 2.625c-.23.086-.459.182-.685.286l-2.365-1.351-1.775 1.774c-9.358 3.029-16.422 11.055-18.231 20.666h-4.384l8.921 12.744zm22.08-2v24h-18v-24h2.029l.44.439 2.365-1.351c.226.104.455.2.685.286l.718 2.626h5.526l.718-2.625c.23-.086.459-.182.685-.286l2.365 1.351.44-.44zm11.361-7.509-4.006 1.336c-1.25-1.551-2.718-2.901-4.355-4.043v-2.547l-2.625-.718c-.086-.229-.182-.458-.286-.685l.967-1.696c4.11 1.808 7.685 4.684 10.305 8.353zm-26.557-10.436 1.979 1.13.486-.258c.445-.236.906-.429 1.369-.572l.525-.161.6-2.194h2.474l.6 2.193.525.161c.463.144.924.336 1.369.572l.486.258 1.979-1.13 1.75 1.749-1.129 1.979.257.486c.237.447.429.908.571 1.37l.162.524 2.193.602v2.473l-2.193.601-.162.524c-.142.459-.334.921-.572 1.371l-.256.485 1.129 1.979-1.75 1.749-1.979-1.13-.486.258c-.445.236-.906.429-1.369.572l-.525.161-.6 2.193h-2.474l-.6-2.193-.525-.161c-.463-.144-.924-.336-1.369-.572l-.486-.258-1.979 1.13-1.75-1.749 1.129-1.979-.256-.485c-.238-.45-.43-.912-.572-1.371l-.162-.524-2.193-.602v-2.473l2.193-.601.162-.524c.143-.462.334-.923.571-1.37l.257-.486-1.129-1.979zm-18.64 21.945.131-.848c1.298-8.404 6.935-15.598 14.653-19.006l.963 1.688c-.104.227-.2.455-.286.685l-2.625.717v2.571c-4.396 3.077-7.519 7.773-8.579 12.993l-.243 1.2h3.901l-5.079 7.256-5.079-7.256z"/><path d="m37 43h-2v-6h-2v6h-2v-4h-2v4h-4v2h14v-10h-2z"/><path d="m25 27h2v2h-2z"/><path d="m29 27h10v2h-10z"/><path d="m25 31h14v2h-14z"/></g></svg>