<?xml version="1.0" encoding="UTF-8" standalone="no"?>
<!-- Created with Inkscape (http://www.inkscape.org/) -->

<svg
   xmlns:dc="http://purl.org/dc/elements/1.1/"
   xmlns:cc="http://creativecommons.org/ns#"
   xmlns:rdf="http://www.w3.org/1999/02/22-rdf-syntax-ns#"
   xmlns:svg="http://www.w3.org/2000/svg"
   xmlns="http://www.w3.org/2000/svg"
   xmlns:sodipodi="http://sodipodi.sourceforge.net/DTD/sodipodi-0.dtd"
   xmlns:inkscape="http://www.inkscape.org/namespaces/inkscape"
   width="210mm"
   height="297mm"
   viewBox="0 0 210 297"
   version="1.1"
   id="svg8"
   inkscape:version="0.92.4 (5da689c313, 2019-01-14)"
   sodipodi:docname="drawing.svg">
  <defs
     id="defs2" />
  <sodipodi:namedview
     id="base"
     pagecolor="#ffffff"
     bordercolor="#666666"
     borderopacity="1.0"
     inkscape:pageopacity="0.0"
     inkscape:pageshadow="2"
     inkscape:zoom="11.2"
     inkscape:cx="354.02543"
     inkscape:cy="564.03674"
     inkscape:document-units="mm"
     inkscape:current-layer="layer1"
     showgrid="false"
     inkscape:window-width="1920"
     inkscape:window-height="1016"
     inkscape:window-x="1920"
     inkscape:window-y="27"
     inkscape:window-maximized="1" />
  <metadata
     id="metadata5">
    <rdf:RDF>
      <cc:Work
         rdf:about="">
        <dc:format>image/svg+xml</dc:format>
        <dc:type
           rdf:resource="http://purl.org/dc/dcmitype/StillImage" />
        <dc:title></dc:title>
      </cc:Work>
    </rdf:RDF>
  </metadata>
  <g
     inkscape:label="Layer 1"
     inkscape:groupmode="layer"
     id="layer1">
    <path
       id="path903"
       d="m 99.029762,144.14643 c -1.753394,0 -3.175,1.42161 -3.175,3.175 0,1.75339 1.421606,3.175 3.175,3.175 1.753398,0 3.174998,-1.42161 3.174998,-3.175 0,-1.75339 -1.4216,-3.175 -3.174998,-3.175 z m 0.264583,4.72467 v 0.567 h -0.529167 v -0.56542 c -0.563562,-0.0751 -0.918368,-0.40296 -0.938212,-0.88873 h 0.603514 c 0.02884,0.24183 0.272786,0.39687 0.624152,0.39687 0.324644,0 0.554038,-0.15716 0.554038,-0.38232 0,-0.19024 -0.148696,-0.29977 -0.514615,-0.37835 l -0.388673,-0.0826 c -0.543718,-0.11378 -0.810154,-0.39688 -0.810154,-0.8517 0,-0.48419 0.337079,-0.82444 0.86995,-0.9099 v -0.57124 h 0.529167 v 0.57045 c 0.517525,0.0839 0.866775,0.4191 0.882915,0.87762 h -0.587111 c -0.02884,-0.23574 -0.248179,-0.39264 -0.549804,-0.39264 -0.312208,0 -0.518848,0.14472 -0.518848,0.372 0,0.18389 0.14261,0.28946 0.49186,0.3638 l 0.359569,0.0765 c 0.599546,0.1262 0.857784,0.38444 0.857784,0.84746 2.6e-4,0.5244 -0.350578,0.87101 -0.936365,0.95118 z"
       inkscape:connector-curvature="0"
       style="stroke-width:0.26458332" />
    <path
       style="fill:#c884a6;fill-opacity:1;stroke:#ffd5d5;stroke-width:0.08928572"
       d="m 373.02543,568.70385 c -0.0737,-0.0144 -0.43527,-0.0745 -0.80358,-0.13344 -4.68733,-0.75039 -8.68186,-4.62684 -9.63719,-9.35231 -0.55479,-2.74422 -0.16212,-5.5297 1.12264,-7.96361 1.71233,-3.24393 4.78221,-5.49553 8.48116,-6.2205 1.0639,-0.20851 3.096,-0.20965 4.18518,-0.002 3.81435,0.72602 6.94773,3.09862 8.62125,6.52804 0.93651,1.91912 1.29802,3.62644 1.21073,5.71789 -0.0971,2.32616 -0.70701,4.21822 -1.9726,6.11928 -2.26486,3.40209 -5.98765,5.38192 -10.04688,5.34305 -0.56473,-0.005 -1.08705,-0.0216 -1.16071,-0.0361 z m 2.32142,-4.93884 v -1.05722 l 0.47378,-0.10602 c 1.0271,-0.22986 2.0637,-0.8968 2.5153,-1.61832 0.32959,-0.52661 0.49307,-1.14831 0.49307,-1.8752 0,-0.93474 -0.18339,-1.49418 -0.6656,-2.03052 -0.57134,-0.63546 -1.26575,-0.94246 -3.07984,-1.36158 -2.28346,-0.52757 -2.63849,-0.73234 -2.63849,-1.52174 0,-0.81405 0.60086,-1.26838 1.74873,-1.32225 0.55398,-0.026 0.76322,0.005 1.14915,0.17119 0.4904,0.21097 0.98605,0.75283 0.98605,1.07799 0,0.15233 0.0912,0.16518 1.17285,0.16518 h 1.17285 l -0.0571,-0.41687 c -0.18221,-1.32936 -1.31079,-2.46434 -2.80196,-2.81784 l -0.46875,-0.11112 v -1.09778 -1.09777 l -1.0491,0.0252 -1.04911,0.0252 -0.0249,1.07323 -0.0249,1.07324 -0.43743,0.1039 c -1.0811,0.25681 -2.11035,1.05719 -2.53114,1.96831 -0.1641,0.35531 -0.19591,0.58362 -0.19591,1.40632 0,0.89244 0.0217,1.02291 0.23783,1.42857 0.29988,0.56293 0.7955,1.04165 1.36932,1.32262 0.58509,0.2865 0.83436,0.36046 2.31877,0.68799 0.68604,0.15137 1.41058,0.34742 1.61009,0.43568 1.14463,0.50632 1.13134,1.68921 -0.025,2.21995 -1.26583,0.58101 -3.08196,0.0863 -3.41769,-0.93097 l -0.0983,-0.29777 h -1.16622 -1.16623 l 0.0523,0.44194 c 0.0793,0.66924 0.44996,1.36187 0.99594,1.86086 0.54267,0.49598 1.05875,0.76436 1.88801,0.98186 l 0.57073,0.14969 v 1.05068 1.05068 h 1.07143 1.07142 z"
       id="path913"
       inkscape:connector-curvature="0"
       transform="scale(0.26458333)" />
  </g>
</svg>
