<?xml version="1.0" encoding="iso-8859-1"?>
<!-- Generator: Adobe Illustrator 16.0.0, SVG Export Plug-In . SVG Version: 6.00 Build 0)  -->
<!DOCTYPE svg PUBLIC "-//W3C//DTD SVG 1.1//EN" "http://www.w3.org/Graphics/SVG/1.1/DTD/svg11.dtd">
<svg version="1.1" id="Capa_1" xmlns="http://www.w3.org/2000/svg" xmlns:xlink="http://www.w3.org/1999/xlink" x="0px" y="0px"
	 width="34.763px" height="34.763px" viewBox="0 0 34.763 34.763" style="enable-background:new 0 0 34.763 34.763;"
	 xml:space="preserve">
<g>
	<path d="M8.799,23.323c-0.088-0.459-0.265-0.965-0.27-1.474c-0.017-1.692,0.674-3.168,1.535-4.574
		c0.018-0.029,0.063-0.039,0.095-0.06c-0.044,0.219-0.144,0.394-0.235,0.567c-0.635,1.222-1.207,2.466-1.235,3.877
		c-0.016,0.772,0.135,1.503,0.786,2.117c-0.008-0.164-0.023-0.276-0.02-0.393c0.018-0.547-0.004-1.1,0.068-1.639
		c0.184-1.359,0.676-2.609,1.325-3.822c0.421-0.786,0.937-1.355,1.8-1.594c0.129-0.035,0.242-0.127,0.42-0.223
		c-0.248-0.156-0.433-0.264-0.609-0.385c-0.412-0.279-0.52-0.68-0.3-1.133c0.109-0.226,0.203-0.474,0.366-0.654
		c0.604-0.668,0.916-1.428,0.846-2.334c-0.002-0.023,0.004-0.045,0.008-0.068c0.044-0.236-0.014-0.422-0.184-0.617
		c-0.666-0.762-0.611-1.561,0.148-2.215c0.188-0.16,0.18-0.275,0.096-0.488c-0.322-0.809-0.397-1.645-0.096-2.475
		c0.252-0.691,0.975-0.904,1.511-0.445c0.359,0.31,0.622,0.701,0.688,1.191c0.031,0.234,0.043,0.471,0.062,0.705
		c0.454,0,0.893,0,1.358,0c0-0.117,0.012-0.23-0.002-0.342c-0.063-0.496,0.121-0.92,0.379-1.32c0.523-0.818,1.733-0.99,2.335-0.299
		c0.565,0.65,0.883,1.414,0.726,2.301c-0.057,0.32-0.172,0.629-0.264,0.957c0.352,0.217,0.605,0.533,0.562,0.971
		c-0.038,0.381-0.17,0.75-0.248,1.127c-0.03,0.154-0.084,0.336-0.032,0.474c0.153,0.426,0.352,0.838,0.537,1.254
		c0.209,0.467,0.437,0.928,0.637,1.397c0.517,1.215,1.024,2.435,1.532,3.654c0.197,0.483,0.422,0.965,0.562,1.467
		c0.429,1.545,0.52,3.125,0.382,4.719c-0.016,0.188,0.016,0.277,0.207,0.354c0.384,0.153,0.582,0.463,0.58,0.886
		c0,0.172-0.04,0.348-0.012,0.512c0.025,0.162,0.078,0.358,0.188,0.461c0.434,0.39,1.121,0.397,1.623,0.093
		c0.6-0.365,0.963-0.925,1.363-1.562c-1.074-0.857-2.209-0.992-3.461-0.396c0.137-0.143,0.278-0.328,0.44-0.352
		c0.483-0.061,0.608-0.398,0.721-0.778c0.065-0.229,0.143-0.457,0.204-0.688c0.452-1.723,0.145-3.287-1.03-4.641
		c-0.304-0.353-0.692-0.632-1.042-0.944c0.819,0.412,1.486,1.006,1.952,1.791c0.997,1.682,0.626,3.393,0.054,5.1
		c1.344,0.094,1.806,0.256,2.334,0.822c0.188-0.021,0.371-0.029,0.547-0.068c0.081-0.018,0.189-0.084,0.214-0.152
		c0.108-0.312,0.218-0.627,0.276-0.949c0.182-0.961-0.043-1.889-0.312-2.799c-0.569-1.922-1.515-3.662-2.676-5.291
		c-0.728-1.022-1.479-2.037-2.094-3.129c-0.878-1.562-1.337-3.26-1.303-5.078c0.013-0.653-0.024-1.323-0.146-1.967
		c-0.212-1.134-0.593-2.229-1.431-3.058c-1.582-1.563-3.486-2.057-5.639-1.485c-1.069,0.282-2.032,0.771-2.639,1.764
		c-0.491,0.804-0.683,1.705-0.675,2.623c0.015,1.688,0.015,3.388,0.19,5.063c0.156,1.481-0.102,2.75-1.113,3.865
		c-0.404,0.444-0.755,0.944-1.11,1.436c-1.484,2.043-2.442,4.35-3.317,6.696c-0.221,0.595-0.311,1.201-0.107,1.845
		C7.52,23.071,8.193,22.928,8.799,23.323z M21.675,10.316c0.33,0.166,0.646,0.361,0.942,0.58c0.112,0.084,0.151,0.266,0.188,0.332
		c0,0.426-0.289,0.619-0.58,0.457c-0.445-0.248-0.68-0.656-0.776-1.145C21.416,10.367,21.518,10.238,21.675,10.316z M19.21,4.456
		c0.527-0.068,1.085,0.389,1.244,1.033C20.138,5.027,19.799,4.595,19.21,4.456z M19.429,1.691c0.353,0.006,0.475,0.275,0.58,0.543
		c0.104,0.271-0.15,0.312-0.291,0.424c-0.035,0.025-0.08,0.041-0.123,0.059c-0.472,0.201-0.594,0.121-0.59-0.393
		C19.009,1.84,19.107,1.688,19.429,1.691z M15.633,5.472c-0.349-0.283-0.699-0.566-1.02-0.826
		C14.988,4.611,15.466,4.974,15.633,5.472z M14.075,32.458c0.113,0.551-0.159,0.973-0.647,1.301c-0.16,0.107-0.307,0.24-0.44,0.381
		c-0.583,0.609-1.295,0.732-2.077,0.541c-0.409-0.1-0.815-0.225-1.205-0.383c-1.479-0.594-3.011-0.979-4.568-1.295
		c-0.534-0.105-1.066-0.252-1.58-0.434c-0.73-0.259-0.963-0.683-0.811-1.435c0.219-1.086,0.229-2.172,0.055-3.267
		c-0.137-0.856,0.076-1.161,0.916-1.381c0.32-0.084,0.639-0.181,0.963-0.237c0.598-0.107,1.044-0.423,1.396-0.906
		c0.308-0.424,0.605-0.864,0.969-1.237c0.644-0.662,1.218-0.689,1.822-0.009c0.67,0.759,1.28,1.576,1.846,2.416
		c0.949,1.408,1.753,2.914,2.85,4.228C13.957,31.211,14.139,31.775,14.075,32.458z M31.644,30.277
		c-0.316,0.256-0.672,0.471-1.027,0.674c-1.519,0.869-2.995,1.797-4.266,3.016c-0.619,0.596-1.366,0.791-2.194,0.781
		c-0.237-0.016-0.479-0.014-0.718-0.045c-0.874-0.113-1.387-0.615-1.576-1.473c-0.154-0.709-0.104-1.414,0.047-2.105
		c0.416-1.889,0.436-3.807,0.457-5.723c0.013-0.869,0.22-1.131,1.188-1.097c0.675,0.022,0.762,0.117,0.689,0.769
		c-0.086,0.811,0.514,1.418,1.432,1.506c1.018,0.1,1.666-0.479,2.264-1.17c0.125-0.146,0.213-0.322,0.324-0.482
		c0.267-0.387,0.795-0.365,0.979,0.07c0.109,0.262,0.167,0.58,0.135,0.861c-0.08,0.647,0.183,1.146,0.62,1.555
		c0.489,0.457,1.005,0.896,1.55,1.285C32.173,29.146,32.25,29.786,31.644,30.277z M15.616,12.365
		c0.874,0.154,1.669-0.043,2.403-0.549c0.393-0.271,0.801-0.543,1.242-0.713c0.667-0.258,1.012-0.693,1.062-1.4
		c0.044-0.582-0.064-0.799-0.621-1.021c-0.274-0.111-0.558-0.205-0.894-0.326c0.46-0.158,0.73-0.41,0.771-0.851
		c0.037-0.42-0.089-0.795-0.367-1.104c-0.258-0.281-0.607-0.264-0.928-0.154c-0.36,0.123-0.461,0.461-0.489,0.799
		c-0.025,0.297-0.005,0.597-0.005,0.896c-0.9-0.568-1.842-0.514-2.8-0.146c-0.038-0.342-0.04-0.688-0.126-1.012
		c-0.102-0.391-0.472-0.623-0.791-0.57C13.765,6.264,13.562,6.571,13.547,7c-0.021,0.58,0.248,1.027,0.662,1.424
		c-0.214,0.183-0.416,0.349-0.611,0.521c-0.646,0.565-0.697,1.172-0.092,1.797c0.484,0.498,1.014,0.955,1.545,1.404
		C15.201,12.27,15.422,12.333,15.616,12.365z M18.82,6.458c0.108,0.074,0.239,0.131,0.316,0.23c0.051,0.064,0.022,0.189,0.033,0.289
		C19.133,6.984,19.097,6.992,19.061,7c-0.106-0.146-0.215-0.293-0.322-0.439C18.767,6.525,18.794,6.49,18.82,6.458z M16.557,7.917
		c0.174,0.025,0.355,0.029,0.518,0.088c0.063,0.023,0.082,0.168,0.121,0.26c-0.033,0.025-0.066,0.052-0.1,0.078
		c-0.193-0.096-0.386-0.188-0.578-0.284C16.53,8.009,16.544,7.963,16.557,7.917z M15.223,8.027c0.088-0.047,0.209-0.035,0.314-0.051
		c0.014,0.033,0.025,0.064,0.038,0.096c-0.082,0.066-0.155,0.156-0.249,0.191c-0.083,0.031-0.189,0.002-0.285-0.002
		C15.1,8.181,15.144,8.072,15.223,8.027z M14.196,6.583c0.018-0.024,0.035-0.049,0.053-0.072c0.089,0.035,0.229,0.05,0.257,0.109
		c0.063,0.146,0.072,0.316,0.104,0.477c-0.041,0-0.08,0-0.12-0.002C14.392,6.924,14.295,6.752,14.196,6.583z M13.232,10.095
		c0.034-0.031,0.068-0.063,0.102-0.094c0.105,0.073,0.221,0.139,0.316,0.227c1.055,0.961,2.236,0.99,3.463,0.426
		c0.743-0.344,1.444-0.777,2.171-1.158c0.151-0.08,0.33-0.104,0.497-0.156c0.017,0.037,0.029,0.072,0.045,0.109
		c-0.056,0.064-0.1,0.148-0.17,0.191c-1.017,0.627-2.002,1.33-3.193,1.6c-1.101,0.248-2.109,0.061-2.943-0.758
		C13.404,10.374,13.326,10.224,13.232,10.095z M21.604,29.088c-0.175,1.383-0.34,2.691-0.511,4.047
		c-2.082-0.523-4.245-0.057-6.375-0.062c-0.047-0.592-0.095-1.194-0.143-1.801C17.184,31.592,19.571,31.004,21.604,29.088z
		 M12.53,26.57c0.342,0.282,0.681,0.573,1.002,0.879c0.302,0.289,0.384,0.666,0.335,1.069c-0.041,0.343-0.36,0.648-0.698,0.634
		c-0.101-0.004-0.221-0.134-0.286-0.234c-0.752-1.17-1.493-2.348-2.244-3.518c-0.172-0.269-0.369-0.521-0.556-0.779
		c0.009-0.014,0.017-0.027,0.025-0.041C10.917,25.243,11.727,25.902,12.53,26.57z"/>
</g>
<g>
</g>
<g>
</g>
<g>
</g>
<g>
</g>
<g>
</g>
<g>
</g>
<g>
</g>
<g>
</g>
<g>
</g>
<g>
</g>
<g>
</g>
<g>
</g>
<g>
</g>
<g>
</g>
<g>
</g>
</svg>
