<?xml version="1.0"?>
<svg xmlns="http://www.w3.org/2000/svg" id="Capa_1" enable-background="new 0 0 512 512" height="512" viewBox="0 0 512 512" width="512" fill="#c884a6">
  <g>
    <path d="m256 0c-140.959 0-256 115.049-256 256 0 140.959 115.049 256 256 256 140.959 0 256-115.049 256-256 0-140.959-115.049-256-256-256zm168.886 106h-59.009c-10.352-27.595-22.326-47.996-34.034-62.893 36.128 12.909 68.034 34.766 93.043 62.893zm-48.886 135c8.271 0 15 6.729 15 15s-6.729 15-15 15-15-6.729-15-15 6.729-15 15-15zm-42.42 0h-62.58v-77.58c12.764-4.527 22.893-14.656 27.42-27.42h45.954c7.209 23.921 12.234 50.431 14.755 78.294-11.88 4.823-21.246 14.573-25.549 26.706zm25.548 56.706c-2.521 27.863-7.545 54.373-14.755 78.294h-73.373v-105h62.58c4.303 12.133 13.669 21.883 25.548 26.706zm-88.128-265.184c29.343 9.823 50.519 44.959 62.607 73.478h-35.187c-4.527-12.764-14.656-22.893-27.42-27.42zm-30 0v46.058c-12.764 4.527-22.893 14.656-27.42 27.42h-35.187c12.083-28.508 33.259-63.653 62.607-73.478zm-60.843 10.585c-11.703 14.89-23.678 35.289-34.034 62.893h-59.009c25.009-28.127 56.915-49.984 93.043-62.893zm-29.157 212.893c0 8.271-6.729 15-15 15s-15-6.729-15-15 6.729-15 15-15 15 6.729 15 15zm-86.423-120.01h71.862c-6.587 23.965-11.195 49.94-13.568 76.969-13.642 4.17-24.544 14.659-29.29 28.041h-63.071c2.528-38.388 14.68-74.185 34.067-105.01zm0 240.01c-19.387-30.815-31.539-66.612-34.067-105h63.07c4.746 13.382 15.649 23.871 29.29 28.041 2.373 27.029 6.981 53.004 13.568 76.959zm22.537 30h59.009c8.25 21.991 19.343 44.2 34.034 62.893-36.128-12.909-68.034-34.766-93.043-62.893zm153.886 73.478c-29.341-9.823-50.516-44.954-62.607-73.478h62.607zm0-103.478h-73.373c-7.209-23.921-12.234-50.431-14.755-78.294 11.879-4.823 21.245-14.573 25.548-26.706h62.58zm0-135h-62.58c-4.303-12.133-13.669-21.883-25.548-26.706 2.521-27.863 7.545-54.373 14.755-78.294h45.954c4.527 12.764 14.656 22.893 27.42 27.42v77.58zm15-105c-8.271 0-15-6.729-15-15s6.729-15 15-15 15 6.729 15 15-6.729 15-15 15zm15 343.478v-73.488h62.607c-12.083 28.517-33.259 63.663-62.607 73.488zm60.843-10.585c14.689-18.69 25.783-40.898 34.034-62.904h59.009c-25.009 28.138-56.915 49.995-93.043 62.904zm115.58-92.893h-71.862c6.587-23.955 11.195-49.93 13.568-76.959 13.642-4.17 24.544-14.659 29.29-28.051h63.07c-2.527 38.398-14.679 74.195-34.066 105.01zm34.067-135h-63.07c-4.746-13.382-15.649-23.871-29.29-28.041-2.373-27.029-6.981-53.004-13.568-76.959h71.862c19.386 30.815 31.538 66.612 34.066 105z"/>
  </g>
</svg>
