<?xml version="1.0" encoding="iso-8859-1"?>
<!-- Generator: Adobe Illustrator 18.1.1, SVG Export Plug-In . SVG Version: 6.00 Build 0)  -->
<svg version="1.1" id="Capa_1" xmlns="http://www.w3.org/2000/svg" xmlns:xlink="http://www.w3.org/1999/xlink" x="0px" y="0px"
	 viewBox="0 0 203.622 203.622" style="enable-background:new 0 0 203.622 203.622;" xml:space="preserve">
<g>
	<g>
		<path style="fill:#010002;" d="M189.523,0H14.102C7.192,0,1.566,5.622,1.566,12.53v132.128c0,6.911,5.626,12.533,12.537,12.533
			h49.542c3.679,4.767,11.109,16.212,8.511,21.656c-1.056,2.19-3.922,3.303-8.532,3.303c-24.93,0-25.65,8.836-25.65,9.838v11.635
			h127.683v-15.203l-0.709-0.533c-0.308-0.236-7.741-5.737-26.083-5.737c-4.008,0-4.806-1.568-5.071-2.079
			c-2.29-4.484,3.912-16.076,8.682-22.88h47.048c6.911,0,12.533-5.622,12.533-12.533V12.53C202.057,5.622,196.431,0,189.523,0z
			 M130.608,181.695c1.36,2.673,4.137,4.03,8.256,4.03c13.94,0,21.069,3.346,23.209,4.567v9.756H41.549v-7.97
			c0.183-1.764,4.513-6.352,22.074-6.352c6.109,0,10.06-1.793,11.76-5.336c3.275-6.832-3.493-17.873-7.272-23.195h70.049
			C134.427,162.884,127.294,175.224,130.608,181.695z M198.478,144.661c0,4.942-4.012,8.954-8.954,8.954h-44.474H60.781H14.102
			c-4.939,0-8.954-4.012-8.954-8.954V12.53c0-4.939,4.015-8.954,8.954-8.954h175.421c4.942,0,8.954,4.015,8.954,8.954
			C198.478,12.53,198.478,144.661,198.478,144.661z"/>
		<path style="fill:#010002;" d="M12.313,130.675h179V13.009h-179V130.675z M15.888,16.584H187.73v110.518H15.888V16.584z"/>
		<circle style="fill:#010002;" cx="101.809" cy="144.049" r="5.909"/>
		<path style="fill:#010002;" d="M101.82,44.932L69.399,42.17v28.974v3.582v29.078l32.421-4.839v-0.089l29.712-4.441V74.429v-2.72
			V47.545l-29.712-2.527V44.932z M98.918,96.457l-26.612,3.973V74.723h26.612C98.918,74.723,98.918,96.457,98.918,96.457z
			 M98.918,71.14H72.305V45.33l26.612,2.276C98.918,47.606,98.918,71.14,98.918,71.14z M102.021,47.942l26.612,2.273v21.308h-26.612
			V47.942z M102.021,74.619h26.612V91.93l-26.612,3.98V74.619z"/>
	</g>
</g>
<g>
</g>
<g>
</g>
<g>
</g>
<g>
</g>
<g>
</g>
<g>
</g>
<g>
</g>
<g>
</g>
<g>
</g>
<g>
</g>
<g>
</g>
<g>
</g>
<g>
</g>
<g>
</g>
<g>
</g>
</svg>
